<?xml version="1.0" standalone="no"?>
<!DOCTYPE svg PUBLIC "-//W3C//DTD SVG 20010904//EN"
 "http://www.w3.org/TR/2001/REC-SVG-20010904/DTD/svg10.dtd">
<svg version="1.0" xmlns="http://www.w3.org/2000/svg"
 width="145.000000pt" height="145.000000pt" viewBox="0 0 145.000000 145.000000"
 preserveAspectRatio="xMidYMid meet">
<metadata>
Created by potrace 1.13, written by Peter Selinger 2001-2015
</metadata>
<g transform="translate(0.000000,145.000000) scale(0.100000,-0.100000)"
fill="#000000" stroke="none">
<path d="M217 1264 c-4 -4 -7 -54 -7 -110 l0 -103 80 -52 80 -51 0 -197 0
-197 -70 -63 c-69 -61 -70 -63 -70 -111 l0 -49 -37 -3 -38 -3 0 -70 0 -70 565
0 565 0 0 70 0 70 -37 3 -38 3 0 49 c0 48 -1 50 -70 111 l-70 63 0 197 0 196
80 51 81 52 -3 107 -3 108 -109 3 c-119 3 -136 -3 -136 -49 0 -28 -1 -29 -55
-29 -54 0 -55 1 -55 28 0 47 -13 52 -152 52 -116 0 -128 -2 -138 -19 -5 -11
-10 -29 -10 -40 0 -19 -6 -21 -54 -21 l-55 0 -3 38 -3 37 -116 3 c-63 1 -118
-1 -122 -4z m581 -359 c21 -24 22 -35 22 -166 l0 -139 -95 0 -95 0 0 138 c0
147 7 173 54 193 35 14 89 2 114 -26z"/>
</g>
</svg>
